<svg width="117" height="116" viewBox="0 0 117 116" fill="none" xmlns="http://www.w3.org/2000/svg">
<rect x="17.8036" y="36.0762" width="79.3677" height="43.2915" rx="7.21525" stroke="#348E2B" stroke-width="4.81016"/>
<rect x="25.0188" y="43.2915" width="64.9372" height="28.861" rx="2.40508" fill="#70D767"/>
<g filter="url(#filter0_d_24_2533)">
<path d="M37.2904 56.8499C33.5472 52.8479 73.7851 11.8341 69.1064 23.8383C64.4277 35.8424 49.1269 50.3661 58.8131 50.8479C68.4993 51.3296 80.3358 48.8473 80.3356 50.8479C80.3354 52.8484 44.7763 87.8608 43.8407 83.8596C42.9051 79.8583 56.9416 61.852 55.0699 61.8518C53.1982 61.8516 41.0335 60.8518 37.2904 56.8499Z" fill="#F9FCF8"/>
<path d="M69.0021 19.2424C69.5771 19.2598 70.3421 19.4384 70.9807 20.0539C71.6066 20.6572 71.8153 21.3962 71.8713 21.9406C71.9582 22.7868 71.7302 23.6614 71.4631 24.4025L71.3469 24.7121C70.0891 27.939 68.1517 31.2583 66.1926 34.3439C64.1368 37.5818 62.2492 40.2827 60.6203 42.9259C59.8405 44.1914 59.2084 45.3084 58.7599 46.2707C58.2991 47.2597 58.1094 47.9244 58.0724 48.3224C58.227 48.3673 58.4959 48.4238 58.9328 48.4455L59.8117 48.4806C64.233 48.6173 69.0448 48.1765 73.0285 47.8801C75.0851 47.727 77.0127 47.6055 78.4416 47.6691C79.1263 47.6996 79.9296 47.7778 80.6301 48.0324C81.2744 48.2666 82.7404 49.037 82.7404 50.8478C82.7404 51.2792 82.6309 51.62 82.5705 51.7863C82.5003 51.9798 82.4183 52.1464 82.3508 52.2717C82.2157 52.522 82.0511 52.7689 81.8937 52.9894C81.5734 53.4384 81.1389 53.9763 80.6349 54.5666C79.6181 55.7576 78.1898 57.3106 76.5031 59.0744C73.1226 62.6093 68.6187 67.0783 64.09 71.3537C59.5701 75.6208 54.9785 79.7399 51.4328 82.5549C49.6828 83.9441 48.0825 85.1012 46.8283 85.7843C46.2519 86.0983 45.482 86.4643 44.6887 86.5588C44.2757 86.6079 43.5871 86.6167 42.8869 86.2394C42.1877 85.8626 41.7712 85.263 41.5715 84.6633L41.4992 84.4074C41.2196 83.2117 41.5395 81.9385 41.8488 81.007C42.1951 79.9643 42.7218 78.8091 43.3244 77.6349C44.5331 75.2797 46.1925 72.574 47.7726 70.0715C49.2316 67.7608 50.6007 65.653 51.6008 64.0041C50.0925 63.8385 48.2746 63.584 46.4094 63.2101C44.4601 62.8195 42.385 62.2862 40.5158 61.5627C38.806 60.9008 37.0668 60.0036 35.7844 58.7482L35.5334 58.4924C34.5297 57.4189 34.5777 56.069 34.7111 55.2843C34.856 54.4323 35.2101 53.5509 35.6193 52.7238C36.4511 51.0429 37.8026 49.0192 39.4182 46.8703C42.6723 42.5419 47.2787 37.3353 51.8254 32.6642C56.3531 28.0126 60.9426 23.7664 64.1691 21.423C64.9811 20.8333 65.7631 20.3224 66.4748 19.9513C67.0838 19.6338 68.0154 19.2125 69.0021 19.2424Z" stroke="#348E2B" stroke-width="4.81016" stroke-linecap="round"/>
</g>
<rect x="94.7662" y="48.1016" width="9.62033" height="19.2407" rx="2.40508" fill="#348E2B"/>
<defs>
<filter id="filter0_d_24_2533" x="32.2363" y="16.8356" width="52.9095" height="76.9624" filterUnits="userSpaceOnUse" color-interpolation-filters="sRGB">
<feFlood flood-opacity="0" result="BackgroundImageFix"/>
<feColorMatrix in="SourceAlpha" type="matrix" values="0 0 0 0 0 0 0 0 0 0 0 0 0 0 0 0 0 0 127 0" result="hardAlpha"/>
<feOffset dy="4.81016"/>
<feComposite in2="hardAlpha" operator="out"/>
<feColorMatrix type="matrix" values="0 0 0 0 0.439216 0 0 0 0 0.843137 0 0 0 0 0.403922 0 0 0 1 0"/>
<feBlend mode="normal" in2="BackgroundImageFix" result="effect1_dropShadow_24_2533"/>
<feBlend mode="normal" in="SourceGraphic" in2="effect1_dropShadow_24_2533" result="shape"/>
</filter>
</defs>
</svg>
