<svg width="117" height="116" viewBox="0 0 117 116" fill="none" xmlns="http://www.w3.org/2000/svg">
<g filter="url(#filter0_d_24_2540)">
<path d="M70.8397 16.8374C71.4225 16.854 72.204 17.0197 72.8729 17.6226C73.55 18.233 73.801 19.0104 73.869 19.6285C73.9729 20.5746 73.7005 21.5682 73.366 22.437L73.2195 22.8013C71.6191 26.6426 69.1486 30.6047 66.6356 34.3072C64.018 38.1637 61.5584 41.4605 59.4715 44.6285C58.4648 46.1566 57.6416 47.5163 57.0545 48.6949C56.4505 49.9075 56.187 50.7521 56.1356 51.2867C56.1207 51.4412 56.1287 51.5363 56.1356 51.5855C56.2544 51.6619 56.7043 51.888 57.8836 51.9429L59.0252 51.9859C64.7683 52.1521 71.008 51.6158 76.1014 51.2613C78.7544 51.0766 81.1812 50.9353 82.9588 51.0093C83.8182 51.0451 84.7462 51.1358 85.5262 51.4009C86.1798 51.6232 87.8349 52.392 87.8348 54.3453L87.8299 54.5152C87.8047 54.8995 87.7003 55.2002 87.6395 55.357C87.5584 55.5658 87.4626 55.7467 87.3826 55.8853C87.2226 56.1628 87.0248 56.4419 86.8289 56.6988C86.4306 57.221 85.8835 57.8541 85.2401 58.5591C83.9436 59.9796 82.1173 61.8385 79.9529 63.9556C75.6168 68.197 69.8363 73.5612 64.0233 78.6949C58.2188 83.8209 52.3342 88.759 47.7996 92.1265C45.5542 93.794 43.5369 95.1552 41.9832 95.9468C41.2525 96.3191 40.3767 96.6973 39.5223 96.7925C39.0854 96.8412 38.3921 96.8475 37.6883 96.4927C36.8742 96.0823 36.3858 95.3631 36.1981 94.6119C35.8625 93.2691 36.2446 91.8136 36.6375 90.7066C37.073 89.4797 37.7384 88.1116 38.5076 86.7095C40.0505 83.8973 42.1737 80.6596 44.2039 77.6519C46.2612 74.604 48.1961 71.829 49.5057 69.7652C47.4429 69.5771 44.7623 69.2536 41.9959 68.7349C39.5181 68.2703 36.9005 67.6397 34.5555 66.7906C32.4041 66.0116 30.2715 64.9756 28.7156 63.5513L28.4119 63.2613C27.2835 62.1327 27.311 60.6591 27.4793 59.7329C27.6568 58.7567 28.0924 57.7343 28.6092 56.7574C29.6588 54.7733 31.3746 52.3683 33.4432 49.7945C37.6064 44.6144 43.509 38.3735 49.3406 32.7691C55.1541 27.1822 61.0213 22.1085 65.1199 19.3238C66.1502 18.6238 67.1234 18.03 67.993 17.606C68.7684 17.2279 69.8032 16.8081 70.8397 16.8374Z" stroke="#348E2B" stroke-width="4.81016" stroke-linecap="round" shape-rendering="crispEdges"/>
</g>
<defs>
<filter id="filter0_d_24_2540" x="24.9899" y="14.4306" width="65.2502" height="89.6012" filterUnits="userSpaceOnUse" color-interpolation-filters="sRGB">
<feFlood flood-opacity="0" result="BackgroundImageFix"/>
<feColorMatrix in="SourceAlpha" type="matrix" values="0 0 0 0 0 0 0 0 0 0 0 0 0 0 0 0 0 0 127 0" result="hardAlpha"/>
<feOffset dy="4.81016"/>
<feComposite in2="hardAlpha" operator="out"/>
<feColorMatrix type="matrix" values="0 0 0 0 0.439216 0 0 0 0 0.843137 0 0 0 0 0.403922 0 0 0 1 0"/>
<feBlend mode="normal" in2="BackgroundImageFix" result="effect1_dropShadow_24_2540"/>
<feBlend mode="normal" in="SourceGraphic" in2="effect1_dropShadow_24_2540" result="shape"/>
</filter>
</defs>
</svg>
